<svg width="458" height="325" viewBox="0 0 458 325" fill="none" xmlns="http://www.w3.org/2000/svg">
<g filter="url(#filter0_d)">
<circle cx="159.333" cy="155.333" r="139.333" fill="white"/>
<circle cx="159.333" cy="155.333" r="139.223" stroke="black" stroke-width="0.22"/>
</g>
<g filter="url(#filter1_d)">
<circle cx="298.667" cy="155.333" r="139.333" fill="white"/>
<circle cx="298.667" cy="155.333" r="139.223" stroke="black" stroke-width="0.22"/>
</g>
<path d="M341.07 136.525C340.646 139.976 339.814 142.904 338.574 145.31C337.339 147.677 335.817 149.655 334.008 151.243C332.2 152.831 330.134 154.112 327.81 155.087C325.53 156.027 323.112 156.812 320.555 157.443C317.998 158.073 315.356 158.595 312.629 159.008C309.941 159.426 307.268 159.884 304.609 160.384C301.95 160.884 299.374 161.513 296.88 162.269C294.387 163.026 292.095 164.063 290.004 165.38C287.919 166.659 286.064 168.301 284.441 170.305C282.822 172.271 281.575 174.735 280.7 177.697L335.193 184.388L333.879 195.089L254.553 185.349C256.063 180.103 257.85 175.64 259.916 171.958C261.987 168.237 264.24 165.109 266.676 162.575C269.113 160.04 271.667 157.993 274.338 156.431C277.052 154.836 279.787 153.559 282.542 152.598C285.301 151.599 288.052 150.834 290.793 150.305C293.539 149.737 296.183 149.196 298.726 148.682C301.268 148.167 303.641 147.593 305.844 146.958C308.091 146.29 310.073 145.372 311.79 144.205C313.547 143.044 314.99 141.548 316.119 139.719C317.254 137.851 318 135.463 318.357 132.556C318.68 129.919 318.518 127.557 317.869 125.471C317.22 123.384 316.201 121.586 314.812 120.077C313.423 118.569 311.703 117.354 309.651 116.433C307.638 115.517 305.43 114.911 303.026 114.616C300.506 114.307 298.103 114.484 295.818 115.148C293.571 115.816 291.471 116.897 289.517 118.388C287.606 119.846 285.866 121.679 284.296 123.887C282.765 126.1 281.491 128.619 280.475 131.446L263.835 119.367C265.824 116.306 268.421 113.752 271.624 111.705C274.865 109.663 278.367 108.066 282.13 106.914C285.896 105.724 289.747 104.977 293.68 104.672C297.657 104.334 301.371 104.377 304.822 104.801C308.156 105.21 311.435 105.751 314.659 106.422C317.882 107.093 320.902 107.976 323.72 109.069C326.576 110.168 329.166 111.509 331.491 113.093C333.815 114.677 335.764 116.589 337.339 118.829C338.918 121.03 340.041 123.588 340.706 126.504C341.41 129.424 341.531 132.764 341.07 136.525Z" fill="#6ECD57"/>
<defs>
<filter id="filter0_d" x="0" y="0" width="318.667" height="318.667" filterUnits="userSpaceOnUse" color-interpolation-filters="sRGB">
<feFlood flood-opacity="0" result="BackgroundImageFix"/>
<feColorMatrix in="SourceAlpha" type="matrix" values="0 0 0 0 0 0 0 0 0 0 0 0 0 0 0 0 0 0 127 0"/>
<feOffset dy="4"/>
<feGaussianBlur stdDeviation="10"/>
<feColorMatrix type="matrix" values="0 0 0 0 0 0 0 0 0 0 0 0 0 0 0 0 0 0 0.25 0"/>
<feBlend mode="normal" in2="BackgroundImageFix" result="effect1_dropShadow"/>
<feBlend mode="normal" in="SourceGraphic" in2="effect1_dropShadow" result="shape"/>
</filter>
<filter id="filter1_d" x="139.333" y="6" width="318.667" height="318.667" filterUnits="userSpaceOnUse" color-interpolation-filters="sRGB">
<feFlood flood-opacity="0" result="BackgroundImageFix"/>
<feColorMatrix in="SourceAlpha" type="matrix" values="0 0 0 0 0 0 0 0 0 0 0 0 0 0 0 0 0 0 127 0"/>
<feOffset dy="10"/>
<feGaussianBlur stdDeviation="10"/>
<feColorMatrix type="matrix" values="0 0 0 0 0 0 0 0 0 0 0 0 0 0 0 0 0 0 0.15 0"/>
<feBlend mode="normal" in2="BackgroundImageFix" result="effect1_dropShadow"/>
<feBlend mode="normal" in="SourceGraphic" in2="effect1_dropShadow" result="shape"/>
</filter>
</defs>
</svg>
